# xmcd
#
# Track frame offsets:
#	150
#	13502
#	25725
#	37847
#	53550
#	64512
#	82157
#	96390
#	107455
#	122067
#	133587
#	146930
#	159992
#	174860
#
# Disc length: 2457 seconds
#
# Revision: 3
# Processed by: cddbd v1.4b42PL1 Copyright (c) Steve Scherf et al.
# Submitted via: EasyCDDAExtractor 4.5.0.2
#
DISCID=ac09970e
DTITLE=Doyle Lawson and Quicksilver - Never Walk Away
DYEAR=1995
DGENRE=Bluegrass
TTITLE0=Sweet Rosie Jones
TTITLE1=I've Kissed You My Last Time
TTITLE2=Jealous
TTITLE3=I Can't Be Your Fool
TTITLE4=Let Me Live Again
TTITLE5=I Never Once Stopped Loving You
TTITLE6=In The Gravel Yard
TTITLE7=I Could Never Walk Away (From You Darlin')
TTITLE8=I'll Never Complain
TTITLE9=Falling, Falling, Falling
TTITLE10=Back In My Baby's Arms Again
TTITLE11=Ancient History
TTITLE12=Senses
TTITLE13=Your Crazy Heart
EXTD=
EXTT0=
EXTT1=
EXTT2=
EXTT3=
EXTT4=
EXTT5=
EXTT6=
EXTT7=
EXTT8=
EXTT9=
EXTT10=
EXTT11=
EXTT12=
EXTT13=
PLAYORDER=
